<?xml version="1.0" encoding="UTF-8" standalone="no"?>
<!DOCTYPE svg PUBLIC "-//W3C//DTD SVG 1.1//EN"
 "http://www.w3.org/Graphics/SVG/1.1/DTD/svg11.dtd">
<!-- Generated by graphviz version 2.47.0 (20210316.0004)
 -->
<!-- Title: dependencies Pages: 1 -->
<svg width="1326pt" height="363pt"
 viewBox="0.00 0.00 1326.00 363.00" xmlns="http://www.w3.org/2000/svg" xmlns:xlink="http://www.w3.org/1999/xlink">
<g id="graph0" class="graph" transform="scale(1 1) rotate(0) translate(4 359)">
<title>dependencies</title>
<polygon fill="white" stroke="transparent" points="-4,4 -4,-359 1322,-359 1322,4 -4,4"/>
<text text-anchor="start" x="638.01" y="-42.4" font-family="Times-12" font-weight="bold" font-size="14.00">Legend</text>
<polygon fill="#ffffb3" stroke="transparent" points="425,-10 425,-30 445,-30 445,-10 425,-10"/>
<text text-anchor="start" x="448.63" y="-15.4" font-family="Times-12" font-size="14.00"> &#160;Declarations</text>
<polygon fill="#8dd3c7" stroke="transparent" points="538,-10 538,-30 558,-30 558,-10 538,-10"/>
<text text-anchor="start" x="561.73" y="-15.4" font-family="Times-12" font-size="14.00"> &#160;Module</text>
<polygon fill="#80b1d3" stroke="transparent" points="624,-10 624,-30 644,-30 644,-10 624,-10"/>
<text text-anchor="start" x="647.78" y="-15.4" font-family="Times-12" font-size="14.00"> &#160;Bootstrap</text>
<polygon fill="#fdb462" stroke="transparent" points="721,-10 721,-30 741,-30 741,-10 721,-10"/>
<text text-anchor="start" x="744.67" y="-15.4" font-family="Times-12" font-size="14.00"> &#160;Providers</text>
<polygon fill="#fb8072" stroke="transparent" points="817,-10 817,-30 837,-30 837,-10 817,-10"/>
<text text-anchor="start" x="840.73" y="-15.4" font-family="Times-12" font-size="14.00"> &#160;Exports</text>
<g id="clust1" class="cluster">
<title>cluster_AppModule</title>
<polygon fill="none" stroke="black" stroke-dasharray="1,5" points="162,-146 162,-347 784,-347 784,-146 162,-146"/>
</g>
<g id="clust3" class="cluster">
<title>cluster_AppModule_imports</title>
<polygon fill="none" stroke="black" points="308,-154 308,-282 776,-282 776,-154 308,-154"/>
</g>
<g id="clust6" class="cluster">
<title>cluster_AppModule_providers</title>
<polygon fill="none" stroke="black" points="170,-230 170,-282 300,-282 300,-230 170,-230"/>
</g>
<g id="clust7" class="cluster">
<title>cluster_AuthModule</title>
<polygon fill="none" stroke="black" stroke-dasharray="1,5" points="278,-70 278,-138 428,-138 428,-70 278,-70"/>
</g>
<g id="clust12" class="cluster">
<title>cluster_AuthModule_providers</title>
<polygon fill="none" stroke="black" points="286,-78 286,-130 420,-130 420,-78 286,-78"/>
</g>
<g id="clust13" class="cluster">
<title>cluster_MetaOptionsModule</title>
<polygon fill="none" stroke="black" stroke-dasharray="1,5" points="436,-70 436,-138 642,-138 642,-70 436,-70"/>
</g>
<g id="clust18" class="cluster">
<title>cluster_MetaOptionsModule_providers</title>
<polygon fill="none" stroke="black" points="444,-78 444,-130 634,-130 634,-78 444,-78"/>
</g>
<g id="clust19" class="cluster">
<title>cluster_PostModule</title>
<polygon fill="none" stroke="black" stroke-dasharray="1,5" points="8,-146 8,-214 154,-214 154,-146 8,-146"/>
</g>
<g id="clust24" class="cluster">
<title>cluster_PostModule_providers</title>
<polygon fill="none" stroke="black" points="16,-154 16,-206 146,-206 146,-154 16,-154"/>
</g>
<g id="clust25" class="cluster">
<title>cluster_TagsModule</title>
<polygon fill="none" stroke="black" stroke-dasharray="1,5" points="792,-222 792,-290 1042,-290 1042,-222 792,-222"/>
</g>
<g id="clust28" class="cluster">
<title>cluster_TagsModule_exports</title>
<polygon fill="none" stroke="black" points="934,-230 934,-282 1034,-282 1034,-230 934,-230"/>
</g>
<g id="clust30" class="cluster">
<title>cluster_TagsModule_providers</title>
<polygon fill="none" stroke="black" points="800,-230 800,-282 926,-282 926,-230 800,-230"/>
</g>
<g id="clust31" class="cluster">
<title>cluster_UsersModule</title>
<polygon fill="none" stroke="black" stroke-dasharray="1,5" points="1050,-222 1050,-290 1310,-290 1310,-222 1050,-222"/>
</g>
<g id="clust34" class="cluster">
<title>cluster_UsersModule_exports</title>
<polygon fill="none" stroke="black" points="1198,-230 1198,-282 1302,-282 1302,-230 1198,-230"/>
</g>
<g id="clust36" class="cluster">
<title>cluster_UsersModule_providers</title>
<polygon fill="none" stroke="black" points="1058,-230 1058,-282 1190,-282 1190,-230 1058,-230"/>
</g>
<!-- AuthModule -->
<g id="node1" class="node">
<title>AuthModule</title>
<polygon fill="#8dd3c7" stroke="black" points="553.55,-198 550.55,-202 529.55,-202 526.55,-198 466.45,-198 466.45,-162 553.55,-162 553.55,-198"/>
<text text-anchor="middle" x="510" y="-175.8" font-family="Times,serif" font-size="14.00">AuthModule</text>
</g>
<!-- AppModule -->
<g id="node6" class="node">
<title>AppModule</title>
<polygon fill="#8dd3c7" stroke="black" points="541.66,-339 538.66,-343 517.66,-343 514.66,-339 458.34,-339 458.34,-303 541.66,-303 541.66,-339"/>
<text text-anchor="middle" x="500" y="-316.8" font-family="Times,serif" font-size="14.00">AppModule</text>
</g>
<!-- AuthModule&#45;&gt;AppModule -->
<g id="edge1" class="edge">
<title>AuthModule&#45;&gt;AppModule</title>
<path fill="none" stroke="black" d="M506.33,-198.14C506.33,-198.14 506.33,-292.93 506.33,-292.93"/>
<polygon fill="black" stroke="black" points="502.83,-292.92 506.33,-302.93 509.83,-292.93 502.83,-292.92"/>
</g>
<!-- MetaOptionsModule -->
<g id="node2" class="node">
<title>MetaOptionsModule</title>
<polygon fill="#8dd3c7" stroke="black" points="448.15,-198 445.15,-202 424.15,-202 421.15,-198 315.85,-198 315.85,-162 448.15,-162 448.15,-198"/>
<text text-anchor="middle" x="382" y="-175.8" font-family="Times,serif" font-size="14.00">MetaOptionsModule</text>
</g>
<!-- PostModule -->
<g id="node3" class="node">
<title>PostModule</title>
<polygon fill="#8dd3c7" stroke="black" points="470.67,-274 467.67,-278 446.67,-278 443.67,-274 387.33,-274 387.33,-238 470.67,-238 470.67,-274"/>
<text text-anchor="middle" x="429" y="-251.8" font-family="Times,serif" font-size="14.00">PostModule</text>
</g>
<!-- MetaOptionsModule&#45;&gt;PostModule -->
<g id="edge9" class="edge">
<title>MetaOptionsModule&#45;&gt;PostModule</title>
<path fill="none" stroke="black" d="M417.74,-198.01C417.74,-198.01 417.74,-227.85 417.74,-227.85"/>
<polygon fill="black" stroke="black" points="414.24,-227.85 417.74,-237.85 421.24,-227.85 414.24,-227.85"/>
</g>
<!-- MetaOptionsModule&#45;&gt;AppModule -->
<g id="edge2" class="edge">
<title>MetaOptionsModule&#45;&gt;AppModule</title>
<path fill="none" stroke="black" d="M351.42,-198.21C351.42,-235.06 351.42,-315 351.42,-315 351.42,-315 448.22,-315 448.22,-315"/>
<polygon fill="black" stroke="black" points="448.22,-318.5 458.22,-315 448.22,-311.5 448.22,-318.5"/>
</g>
<!-- PostModule&#45;&gt;AppModule -->
<g id="edge3" class="edge">
<title>PostModule&#45;&gt;AppModule</title>
<path fill="none" stroke="black" d="M464.5,-274.11C464.5,-274.11 464.5,-292.99 464.5,-292.99"/>
<polygon fill="black" stroke="black" points="461,-292.99 464.5,-302.99 468,-292.99 461,-292.99"/>
</g>
<!-- TagsModule -->
<g id="node4" class="node">
<title>TagsModule</title>
<polygon fill="#8dd3c7" stroke="black" points="658.26,-198 655.26,-202 634.26,-202 631.26,-198 571.74,-198 571.74,-162 658.26,-162 658.26,-198"/>
<text text-anchor="middle" x="615" y="-175.8" font-family="Times,serif" font-size="14.00">TagsModule</text>
</g>
<!-- TagsModule&#45;&gt;PostModule -->
<g id="edge10" class="edge">
<title>TagsModule&#45;&gt;PostModule</title>
<path fill="none" stroke="black" d="M606.32,-198.01C606.32,-220.49 606.32,-256 606.32,-256 606.32,-256 481.02,-256 481.02,-256"/>
<polygon fill="black" stroke="black" points="481.02,-252.5 471.02,-256 481.02,-259.5 481.02,-252.5"/>
</g>
<!-- TagsModule&#45;&gt;AppModule -->
<g id="edge4" class="edge">
<title>TagsModule&#45;&gt;AppModule</title>
<path fill="none" stroke="black" d="M623.68,-198.21C623.68,-235.06 623.68,-315 623.68,-315 623.68,-315 551.87,-315 551.87,-315"/>
<polygon fill="black" stroke="black" points="551.87,-311.5 541.87,-315 551.87,-318.5 551.87,-311.5"/>
</g>
<!-- TagService  -->
<g id="node11" class="node">
<title>TagService </title>
<polygon fill="#fb8072" stroke="black" points="1025.75,-274 942.25,-274 942.25,-238 1025.75,-238 1025.75,-274"/>
<text text-anchor="middle" x="984" y="-251.8" font-family="Times,serif" font-size="14.00">TagService </text>
</g>
<!-- TagsModule&#45;&gt;TagService  -->
<g id="edge13" class="edge">
<title>TagsModule&#45;&gt;TagService </title>
<path fill="none" stroke="black" stroke-dasharray="5,2" d="M588.97,-198.11C588.97,-207.9 588.97,-218 588.97,-218 588.97,-218 984,-218 984,-218 984,-218 984,-227.89 984,-227.89"/>
<polygon fill="black" stroke="black" points="980.5,-227.89 984,-237.89 987.5,-227.89 980.5,-227.89"/>
</g>
<!-- UsersModule -->
<g id="node5" class="node">
<title>UsersModule</title>
<polygon fill="#8dd3c7" stroke="black" points="767.92,-198 764.92,-202 743.92,-202 740.92,-198 676.08,-198 676.08,-162 767.92,-162 767.92,-198"/>
<text text-anchor="middle" x="722" y="-175.8" font-family="Times,serif" font-size="14.00">UsersModule</text>
</g>
<!-- UsersModule&#45;&gt;PostModule -->
<g id="edge11" class="edge">
<title>UsersModule&#45;&gt;PostModule</title>
<path fill="none" stroke="black" d="M706.76,-198.03C706.76,-222.98 706.76,-265 706.76,-265 706.76,-265 480.88,-265 480.88,-265"/>
<polygon fill="black" stroke="black" points="480.88,-261.5 470.88,-265 480.88,-268.5 480.88,-261.5"/>
</g>
<!-- UsersModule&#45;&gt;AppModule -->
<g id="edge5" class="edge">
<title>UsersModule&#45;&gt;AppModule</title>
<path fill="none" stroke="black" d="M737.24,-198.03C737.24,-237.28 737.24,-327 737.24,-327 737.24,-327 551.87,-327 551.87,-327"/>
<polygon fill="black" stroke="black" points="551.87,-323.5 541.87,-327 551.87,-330.5 551.87,-323.5"/>
</g>
<!-- UserService  -->
<g id="node13" class="node">
<title>UserService </title>
<polygon fill="#fb8072" stroke="black" points="1293.9,-274 1206.1,-274 1206.1,-238 1293.9,-238 1293.9,-274"/>
<text text-anchor="middle" x="1250" y="-251.8" font-family="Times,serif" font-size="14.00">UserService </text>
</g>
<!-- UsersModule&#45;&gt;UserService  -->
<g id="edge15" class="edge">
<title>UsersModule&#45;&gt;UserService </title>
<path fill="none" stroke="black" stroke-dasharray="5,2" d="M767.93,-174C896.39,-174 1250,-174 1250,-174 1250,-174 1250,-227.8 1250,-227.8"/>
<polygon fill="black" stroke="black" points="1246.5,-227.8 1250,-237.8 1253.5,-227.8 1246.5,-227.8"/>
</g>
<!-- AppService -->
<g id="node7" class="node">
<title>AppService</title>
<ellipse fill="#fdb462" stroke="black" cx="235" cy="-256" rx="56.74" ry="18"/>
<text text-anchor="middle" x="235" y="-251.8" font-family="Times,serif" font-size="14.00">AppService</text>
</g>
<!-- AppService&#45;&gt;AppModule -->
<g id="edge6" class="edge">
<title>AppService&#45;&gt;AppModule</title>
<path fill="none" stroke="black" d="M235,-274.28C235,-295.32 235,-327 235,-327 235,-327 448.3,-327 448.3,-327"/>
<polygon fill="black" stroke="black" points="448.3,-330.5 458.3,-327 448.3,-323.5 448.3,-330.5"/>
</g>
<!-- AuthService -->
<g id="node8" class="node">
<title>AuthService</title>
<ellipse fill="#fdb462" stroke="black" cx="353" cy="-104" rx="59.11" ry="18"/>
<text text-anchor="middle" x="353" y="-99.8" font-family="Times,serif" font-size="14.00">AuthService</text>
</g>
<!-- AuthService&#45;&gt;AuthModule -->
<g id="edge7" class="edge">
<title>AuthService&#45;&gt;AuthModule</title>
<path fill="none" stroke="black" d="M363.99,-122.11C363.99,-131.9 363.99,-142 363.99,-142 363.99,-142 510,-142 510,-142 510,-142 510,-151.89 510,-151.89"/>
<polygon fill="black" stroke="black" points="506.5,-151.89 510,-161.89 513.5,-151.89 506.5,-151.89"/>
</g>
<!-- MetaOptionService -->
<g id="node9" class="node">
<title>MetaOptionService</title>
<ellipse fill="#fdb462" stroke="black" cx="539" cy="-104" rx="86.81" ry="18"/>
<text text-anchor="middle" x="539" y="-99.8" font-family="Times,serif" font-size="14.00">MetaOptionService</text>
</g>
<!-- MetaOptionService&#45;&gt;MetaOptionsModule -->
<g id="edge8" class="edge">
<title>MetaOptionService&#45;&gt;MetaOptionsModule</title>
<path fill="none" stroke="black" d="M459.28,-111.29C459.28,-130.31 459.28,-180 459.28,-180 459.28,-180 458.18,-180 458.18,-180"/>
<polygon fill="black" stroke="black" points="458.21,-176.5 448.21,-180 458.21,-183.5 458.21,-176.5"/>
</g>
<!-- PostService -->
<g id="node10" class="node">
<title>PostService</title>
<ellipse fill="#fdb462" stroke="black" cx="81" cy="-180" rx="56.76" ry="18"/>
<text text-anchor="middle" x="81" y="-175.8" font-family="Times,serif" font-size="14.00">PostService</text>
</g>
<!-- PostService&#45;&gt;PostModule -->
<g id="edge12" class="edge">
<title>PostService&#45;&gt;PostModule</title>
<path fill="none" stroke="black" d="M137.73,-180C204,-180 304.69,-180 304.69,-180 304.69,-180 304.69,-256 304.69,-256 304.69,-256 377.26,-256 377.26,-256"/>
<polygon fill="black" stroke="black" points="377.26,-259.5 387.26,-256 377.26,-252.5 377.26,-259.5"/>
</g>
<!-- TagService -->
<g id="node12" class="node">
<title>TagService</title>
<ellipse fill="#fdb462" stroke="black" cx="863" cy="-256" rx="55.01" ry="18"/>
<text text-anchor="middle" x="863" y="-251.8" font-family="Times,serif" font-size="14.00">TagService</text>
</g>
<!-- TagService&#45;&gt;TagsModule -->
<g id="edge14" class="edge">
<title>TagService&#45;&gt;TagsModule</title>
<path fill="none" stroke="black" d="M815.11,-247C749.86,-247 641.03,-247 641.03,-247 641.03,-247 641.03,-208.31 641.03,-208.31"/>
<polygon fill="black" stroke="black" points="644.53,-208.31 641.03,-198.31 637.53,-208.31 644.53,-208.31"/>
</g>
<!-- UserService -->
<g id="node14" class="node">
<title>UserService</title>
<ellipse fill="#fdb462" stroke="black" cx="1124" cy="-256" rx="58.44" ry="18"/>
<text text-anchor="middle" x="1124" y="-251.8" font-family="Times,serif" font-size="14.00">UserService</text>
</g>
<!-- UserService&#45;&gt;UsersModule -->
<g id="edge16" class="edge">
<title>UserService&#45;&gt;UsersModule</title>
<path fill="none" stroke="black" d="M1124,-237.97C1124,-217.23 1124,-186 1124,-186 1124,-186 777.72,-186 777.72,-186"/>
<polygon fill="black" stroke="black" points="777.72,-182.5 767.72,-186 777.72,-189.5 777.72,-182.5"/>
</g>
</g>
</svg>
